<svg width="46" height="29" viewBox="0 0 46 29" fill="none" xmlns="http://www.w3.org/2000/svg">
<path d="M3.83333 17.8497C4.36574 17.8497 4.73843 17.6372 4.95139 17.2122C5.16435 16.7872 5.16435 16.3622 4.95139 15.9372C4.73843 15.5122 4.36574 15.2998 3.83333 15.2998C3.30093 15.2998 2.92824 15.5122 2.71528 15.9372C2.50231 16.3622 2.50231 16.7872 2.71528 17.2122C2.92824 17.6372 3.30093 17.8497 3.83333 17.8497ZM33.2422 16.6943C33.1091 16.5216 32.8529 16.1896 32.4735 15.6982C32.0942 15.2068 31.818 14.8482 31.645 14.6224C31.4719 14.3966 31.219 14.0713 30.8863 13.6463C30.5535 13.2213 30.2707 12.8693 30.0378 12.5904C29.8048 12.3115 29.5353 11.9994 29.2292 11.6541C28.923 11.3088 28.6236 10.9834 28.3307 10.678L25.8351 13.467C24.7303 14.7154 23.3427 15.3263 21.6723 15.2998C20.0019 15.2732 18.6343 14.6224 17.5694 13.3474C16.8108 12.431 16.4348 11.3818 16.4414 10.1998C16.4481 9.01782 16.8374 7.97526 17.6094 7.07215L21.1432 2.96831C20.8504 2.82222 20.511 2.71265 20.125 2.63961C19.739 2.56656 19.4229 2.52672 19.1766 2.52008C18.9304 2.51344 18.5544 2.51676 18.0486 2.53004C17.5428 2.54332 17.2167 2.54996 17.0703 2.54996C15.8458 2.54996 14.7943 2.98823 13.9158 3.86478L10.7613 7.01239H7.66667V17.8497C7.73322 17.8497 7.87297 17.8464 8.08594 17.8397C8.2989 17.8331 8.44531 17.8331 8.52517 17.8397C8.60503 17.8464 8.73481 17.8597 8.9145 17.8796C9.09418 17.8995 9.23061 17.9294 9.32378 17.9692C9.41696 18.0091 9.53342 18.0655 9.67318 18.1386C9.81293 18.2116 9.93605 18.3013 10.0425 18.4075L15.9722 24.2246C17.5029 25.6988 19.0136 26.4359 20.5043 26.4359C21.5425 26.4359 22.3744 26.1238 23 25.4996C23.7587 25.7652 24.5074 25.7121 25.2461 25.3402C25.9848 24.9683 26.4673 24.4039 26.6936 23.6469C27.6785 23.7266 28.5237 23.4344 29.2292 22.7703C29.4954 22.5313 29.735 22.2291 29.9479 21.8639C30.1609 21.4987 30.2541 21.1633 30.2274 20.8579C30.3605 20.9907 30.6467 21.0571 31.0859 21.0571C31.6583 21.0571 32.1707 20.9176 32.6233 20.6387C33.0758 20.3598 33.4052 20.0079 33.6115 19.5829C33.8179 19.1579 33.8977 18.6831 33.8511 18.1585C33.8045 17.6339 33.6016 17.1458 33.2422 16.6943ZM36.4167 17.8497H38.3333V7.64988H36.4766L33.342 4.064C32.4635 3.05464 31.3388 2.54996 29.9679 2.54996H26.6337C25.4491 2.54996 24.4774 2.99487 23.7188 3.8847L19.546 8.72564C19.1733 9.16391 18.987 9.66195 18.987 10.2198C18.987 10.7776 19.1667 11.2756 19.526 11.7139C20.0984 12.3912 20.8304 12.7365 21.7222 12.7498C22.614 12.7631 23.3527 12.4377 23.9384 11.7736L27.7917 7.43074C28.1244 7.12527 28.4805 6.9825 28.8598 7.00243C29.2391 7.02235 29.5519 7.20164 29.7982 7.54031C30.0444 7.87897 30.101 8.25416 29.9679 8.66587C30.1808 8.91821 30.5535 9.33657 31.0859 9.92093C31.6183 10.5053 32.0177 10.9569 32.2839 11.2756C32.6698 11.7537 33.2189 12.4543 33.931 13.3773C34.6431 14.3004 35.0723 14.8615 35.2188 15.0607C35.9109 15.9372 36.3102 16.8669 36.4167 17.8497ZM42.1667 17.8497C42.6991 17.8497 43.0718 17.6372 43.2847 17.2122C43.4977 16.7872 43.4977 16.3622 43.2847 15.9372C43.0718 15.5122 42.6991 15.2998 42.1667 15.2998C41.6343 15.2998 41.2616 15.5122 41.0486 15.9372C40.8356 16.3622 40.8356 16.7872 41.0486 17.2122C41.2616 17.6372 41.6343 17.8497 42.1667 17.8497ZM46 6.3749V19.1247C46 19.47 45.8736 19.7688 45.6207 20.0212C45.3678 20.2735 45.0683 20.3997 44.7222 20.3997H36.0573C35.6979 21.2629 35.1522 21.9701 34.4201 22.5213C33.6881 23.0725 32.8562 23.4145 31.9245 23.5473C31.4852 24.1848 30.9495 24.726 30.3173 25.1709C29.685 25.6158 29.0029 25.9179 28.2708 26.0773C27.7118 26.7812 27.0163 27.3224 26.1845 27.7009C25.3526 28.0794 24.4974 28.2421 23.6189 28.189C22.8203 28.6405 21.9818 28.9028 21.1033 28.9759C20.2248 29.0489 19.3763 28.956 18.5577 28.697C17.7391 28.438 16.9605 28.0827 16.2218 27.6312C15.4831 27.1796 14.7943 26.6418 14.1554 26.0175L8.42535 20.3997H1.27778C0.931713 20.3997 0.632234 20.2735 0.37934 20.0212C0.126447 19.7688 0 19.47 0 19.1247V5.73741C0 5.3921 0.126447 5.09328 0.37934 4.84094C0.632234 4.5886 0.931713 4.46243 1.27778 4.46243H9.68316C9.8695 4.27649 10.1823 3.95775 10.6215 3.50619C11.0608 3.05464 11.3769 2.73589 11.5699 2.54996C11.7629 2.36402 12.0557 2.0984 12.4484 1.7531C12.841 1.40779 13.1771 1.15877 13.4566 1.00604C13.7361 0.853306 14.0755 0.683973 14.4748 0.498039C14.8741 0.312104 15.2867 0.182614 15.7127 0.109569C16.1386 0.0365228 16.5911 0 17.0703 0H19.4063C20.724 0 21.9285 0.371869 23.02 1.11561C24.1114 0.371869 25.316 0 26.6337 0H29.9679C30.4337 0 30.8796 0.0398431 31.3056 0.119529C31.7315 0.199216 32.1075 0.295503 32.4336 0.408392C32.7597 0.521281 33.1024 0.697254 33.4618 0.936313C33.8212 1.17537 34.1173 1.38123 34.3503 1.55388C34.5832 1.72653 34.8694 1.98883 35.2088 2.34078C35.5482 2.69273 35.8077 2.97163 35.9874 3.17749C36.1671 3.38334 36.44 3.70209 36.806 4.13372C37.172 4.56536 37.4482 4.88742 37.6345 5.09992H44.7222C45.0683 5.09992 45.3678 5.22609 45.6207 5.47843C45.8736 5.73077 46 6.02959 46 6.3749Z" fill="#5B86C6"/>
</svg>
