<svg width="42" height="29" viewBox="0 0 42 29" fill="none" xmlns="http://www.w3.org/2000/svg">
<path d="M39.9 0H2.1C0.940406 0 0 0.927612 0 2.07143V26.9286C0 28.0724 0.940406 29 2.1 29H39.9C41.0596 29 42 28.0724 42 26.9286V2.07143C42 0.927612 41.0596 0 39.9 0ZM11.55 19.1529V20.1964C11.55 20.4825 11.3151 20.7143 11.025 20.7143H9.975C9.68494 20.7143 9.45 20.4825 9.45 20.1964V19.1419C8.70909 19.1044 7.98853 18.8494 7.39134 18.4072C7.13541 18.2176 7.12228 17.8395 7.35394 17.6214L8.12503 16.8957C8.30681 16.7248 8.57719 16.7171 8.78981 16.8485C9.04378 17.0051 9.33187 17.0893 9.63112 17.0893H11.4758C11.9024 17.0893 12.2502 16.7061 12.2502 16.2355C12.2502 15.8503 12.0133 15.5111 11.6747 15.4114L8.72156 14.5375C7.50159 14.1763 6.64912 13.0215 6.64912 11.7288C6.64912 10.1416 7.89928 8.85212 9.44934 8.81134V7.76786C9.44934 7.48174 9.68428 7.25 9.97434 7.25H11.0243C11.3144 7.25 11.5493 7.48174 11.5493 7.76786V8.82234C12.2902 8.85989 13.0108 9.11429 13.608 9.55705C13.8639 9.74672 13.8771 10.1248 13.6454 10.3429L12.8743 11.0685C12.6925 11.2394 12.4222 11.2472 12.2095 11.1158C11.9556 10.9585 11.6675 10.875 11.3682 10.875H9.5235C9.09694 10.875 8.74913 11.2582 8.74913 11.7288C8.74913 12.114 8.98603 12.4532 9.32466 12.5529L12.2778 13.4267C13.4977 13.7879 14.3502 14.9428 14.3502 16.2355C14.3502 17.8233 13.1001 19.1122 11.55 19.1529V19.1529ZM27.3 18.125C27.3 18.4111 27.0651 18.6429 26.775 18.6429H19.425C19.1349 18.6429 18.9 18.4111 18.9 18.125V17.0893C18.9 16.8032 19.1349 16.5714 19.425 16.5714H26.775C27.0651 16.5714 27.3 16.8032 27.3 17.0893V18.125ZM37.8 18.125C37.8 18.4111 37.5651 18.6429 37.275 18.6429H32.025C31.7349 18.6429 31.5 18.4111 31.5 18.125V17.0893C31.5 16.8032 31.7349 16.5714 32.025 16.5714H37.275C37.5651 16.5714 37.8 16.8032 37.8 17.0893V18.125ZM37.8 11.9107C37.8 12.1968 37.5651 12.4286 37.275 12.4286H19.425C19.1349 12.4286 18.9 12.1968 18.9 11.9107V10.875C18.9 10.5889 19.1349 10.3571 19.425 10.3571H37.275C37.5651 10.3571 37.8 10.5889 37.8 10.875V11.9107Z" fill="#5B86C6"/>
</svg>
