<svg width="29" height="29" viewBox="0 0 29 29" fill="none" xmlns="http://www.w3.org/2000/svg">
<g clip-path="url(#clip0_3_31)">
<path fill-rule="evenodd" clip-rule="evenodd" d="M14.5 27.0661C14.5616 27.0561 14.6222 27.0409 14.6813 27.0207C14.819 26.9791 14.9966 26.9102 15.2141 26.8069C15.6491 26.6021 16.2056 26.2812 16.8327 25.8408C18.4088 24.7063 19.8061 23.3421 20.9779 21.7935C23.7456 18.1739 26.0656 12.6748 25.0614 5.14025C25.0387 4.9785 24.9709 4.82642 24.8657 4.70141C24.7606 4.5764 24.6224 4.48351 24.4669 4.43338C23.287 4.04731 21.2951 3.41837 19.3249 2.88369C17.313 2.33812 15.4624 1.93394 14.5 1.93394V27.0661ZM9.19301 1.015C11.1596 0.480313 13.2494 0 14.5 0C15.7506 0 17.8404 0.480313 19.807 1.015C21.8189 1.55875 23.8471 2.20219 25.0397 2.59187C25.5383 2.75654 25.9804 3.05853 26.3151 3.46315C26.6498 3.86776 26.8636 4.35859 26.9319 4.87925C28.0122 12.9938 25.5055 19.0077 22.4641 22.9861C21.1744 24.688 19.6366 26.1867 17.9021 27.4322C17.3023 27.8632 16.6668 28.2421 16.0026 28.565C15.4951 28.8043 14.9495 29 14.5 29C14.0505 29 13.5068 28.8043 12.9974 28.565C12.3332 28.2422 11.6977 27.8632 11.0979 27.4322C9.36343 26.1867 7.82563 24.688 6.53588 22.9861C3.49451 19.0077 0.987822 12.9938 2.06807 4.87925C2.13638 4.35859 2.35018 3.86776 2.6849 3.46315C3.01962 3.05853 3.46169 2.75654 3.96032 2.59187C5.69161 2.02422 7.43634 1.49844 9.19301 1.015V1.015Z" fill="#5B86C6"/>
</g>
<defs>
<clipPath id="clip0_3_31">
<rect width="29" height="29" fill="white"/>
</clipPath>
</defs>
</svg>
