<svg width="29" height="29" viewBox="0 0 29 29" fill="none" xmlns="http://www.w3.org/2000/svg">
<path d="M14.0508 0.119335C14.1877 0.0411328 14.3426 0 14.5003 0C14.658 0 14.8129 0.0411328 14.9498 0.119335L21.7468 4.0036C21.8855 4.08283 22.0008 4.19732 22.081 4.33546C22.1612 4.47361 22.2035 4.6305 22.2036 4.79024V12.0313L28.5438 15.6564C28.682 15.7353 28.797 15.8492 28.8771 15.9867C28.9573 16.1241 28.9999 16.2803 29.0006 16.4394V24.2079C29.0005 24.3677 28.9583 24.5246 28.878 24.6627C28.7978 24.8009 28.6825 24.9154 28.5438 24.9946L21.7468 28.8789C21.6099 28.9571 21.455 28.9982 21.2973 28.9982C21.1396 28.9982 20.9847 28.9571 20.8478 28.8789L14.5003 25.2538L8.15279 28.8807C8.01588 28.9589 7.86095 29 7.70328 29C7.54561 29 7.39068 28.9589 7.25377 28.8807L0.456759 24.9964C0.318051 24.9172 0.20275 24.8027 0.122537 24.6645C0.042325 24.5264 5.1525e-05 24.3695 0 24.2098L0 16.4412C5.1525e-05 16.2815 0.042325 16.1246 0.122537 15.9864C0.20275 15.8483 0.318051 15.7338 0.456759 15.6546L6.79701 12.0313V4.79024C6.79706 4.6305 6.83934 4.47361 6.91955 4.33546C6.99976 4.19732 7.11506 4.08283 7.25377 4.0036L14.0508 0.119335ZM7.70328 13.601L2.73331 16.4412L7.70328 19.2815L12.6733 16.4412L7.70328 13.601ZM13.594 18.0036L8.60955 20.8511V26.5316L13.594 23.6841V18.0036ZM15.4066 23.6841L20.391 26.5316V20.8511L15.4066 18.0036V23.6841ZM16.3273 16.4412L21.2973 19.2815L26.2673 16.4412L21.2973 13.601L16.3273 16.4412ZM20.391 12.0313V6.35084L15.4066 9.20014V14.8806L20.391 12.0313V12.0313ZM13.594 14.8806V9.20014L8.60955 6.35084V12.0313L13.594 14.8806ZM9.53032 4.79024L14.5003 7.63049L19.4703 4.79024L14.5003 1.95L9.53032 4.79024ZM27.188 18.0036L22.2036 20.8511V26.5316L27.188 23.6841V18.0036ZM6.79701 26.5316V20.8511L1.81254 18.0036V23.6841L6.79701 26.5316Z" fill="#5B86C6"/>
</svg>
